<?xml version="1.0" encoding="UTF-8" standalone="no"?>
<svg width="20px" height="17px" viewBox="0 0 20 17" version="1.1" xmlns="http://www.w3.org/2000/svg" xmlns:xlink="http://www.w3.org/1999/xlink" xmlns:sketch="http://www.bohemiancoding.com/sketch/ns">
    <!-- Generator: Sketch 3.2.2 (9983) - http://www.bohemiancoding.com/sketch -->
    <title>Fill 5</title>
    <desc>Created with Sketch.</desc>
    <defs></defs>
    <g id="Page-1" stroke="none" stroke-width="1" fill="none" fill-rule="evenodd" sketch:type="MSPage">
        <path d="M19.3790061,8.03187277 L13.3785361,0.344404651 C13.1816355,0.0703541417 12.8627965,0.0703541417 12.6653962,0.344404651 C12.4689954,0.618455159 12.4689954,1.06817907 12.6653962,1.34222958 L18.3040489,8.56591992 L12.6653962,15.7966372 C12.4689954,16.0706877 12.4689954,16.5133847 12.6653962,16.7944621 C12.8627965,17.0685126 13.1816355,17.0685126 13.3785361,16.7944621 L19.3790061,9.106994 C19.4839531,8.95942834 19.5289304,8.76267413 19.5219339,8.56591992 C19.5289304,8.37619264 19.4839531,8.17943843 19.3790061,8.03187277 Z M1.21568717,8.56591992 L6.84134645,1.34222958 C7.03774728,1.06817907 7.03774728,0.618455159 6.84134645,0.344404651 C6.64494563,0.0703541417 6.32610663,0.0703541417 6.13020555,0.344404651 L0.142728966,8.03187277 C0.0382817078,8.17943843 -0.00669558056,8.37619264 0.000800634172,8.56591992 C-0.00669558056,8.76267413 0.0382817078,8.95942834 0.142728966,9.106994 L6.13020555,16.7944621 C6.32610663,17.0685126 6.64494563,17.0685126 6.84134645,16.7944621 C7.03774728,16.5133847 7.03774728,16.0706877 6.84134645,15.7966372 L1.21568717,8.56591992 Z" id="Fill-5" fill="#FFFFFF" sketch:type="MSShapeGroup"></path>
    </g>
</svg>