<?xml version="1.0" encoding="utf-8"?>
<!-- Generator: Adobe Illustrator 18.1.1, SVG Export Plug-In . SVG Version: 6.00 Build 0)  -->
<!DOCTYPE svg PUBLIC "-//W3C//DTD SVG 1.1//EN" "http://www.w3.org/Graphics/SVG/1.1/DTD/svg11.dtd">
<svg version="1.1" xmlns="http://www.w3.org/2000/svg" xmlns:xlink="http://www.w3.org/1999/xlink" x="0px" y="0px"
	 viewBox="0 0 32 32" enable-background="new 0 0 32 32" xml:space="preserve">
<g id="Layer_1">
</g>
<g id="Layer_2">
	<g>
		<path fill="#066C9A" d="M16.959,14.824v-0.033c-0.006,0.012-0.015,0.023-0.023,0.033H16.959z"/>
		<path fill="#066C9A" d="M16,0C7.163,0,0,7.164,0,16c0,8.838,7.163,16,16,16c8.836,0,16-7.162,16-16C32,7.164,24.836,0,16,0z
			 M11.633,23.647H8.202V13.33h3.431V23.647z M9.917,11.92H9.894C8.744,11.92,8,11.127,8,10.137c0-1.012,0.768-1.783,1.939-1.783
			c1.174,0,1.896,0.771,1.918,1.783C11.857,11.127,11.113,11.92,9.917,11.92z M24,23.647h-3.43v-5.519
			c0-1.387-0.496-2.334-1.738-2.334c-0.946,0-1.512,0.641-1.76,1.256c-0.091,0.221-0.113,0.525-0.113,0.836v5.762H13.53
			c0,0,0.044-9.35,0-10.316h3.429v1.461c0.457-0.705,1.271-1.703,3.092-1.703c2.256,0,3.949,1.473,3.949,4.643V23.647z"/>
	</g>
</g>
<g id="Layer_3">
</g>
</svg>
