<?xml version="1.0" encoding="utf-8"?>
<!-- Generator: Adobe Illustrator 18.0.0, SVG Export Plug-In . SVG Version: 6.00 Build 0)  -->
<!DOCTYPE svg PUBLIC "-//W3C//DTD SVG 1.1//EN" "http://www.w3.org/Graphics/SVG/1.1/DTD/svg11.dtd">
<svg version="1.1" id="Layer_1" xmlns="http://www.w3.org/2000/svg" xmlns:xlink="http://www.w3.org/1999/xlink" x="0px" y="0px"
	 width="187px" height="55px" viewBox="385.712 251.5 187 55" enable-background="new 385.712 251.5 187 55" xml:space="preserve">
<g>
	<g>
		<g>
			<path fill="#FFFFFF" d="M440.202,279.003c0,14.965-12.132,27.098-27.099,27.098c-14.968,0-27.102-12.133-27.102-27.098
				c0-14.969,12.134-27.104,27.102-27.104C428.069,251.899,440.202,264.034,440.202,279.003z M413.102,289.2l7.78-7.799l7.798,7.799
				l2.401-2.398l-6.103-6.103h9.954v-3.394h-9.954l6.103-6.102l-2.401-2.399l-7.789,7.79l-7.789-7.79l-7.788,7.79l-7.789-7.79
				l-2.4,2.399l6.102,6.102h-9.952v3.394h9.952l-6.102,6.103l2.4,2.398l7.799-7.799L413.102,289.2z"/>
		</g>
		
			<rect x="409.285" y="275.185" transform="matrix(0.707 -0.7072 0.7072 0.707 -76.2783 373.8819)" fill="#FFFFFF" width="7.635" height="7.634"/>
	</g>
	<g>
		<polygon fill="#FFFFFF" points="470.481,255.797 470.481,301.607 463.917,301.607 463.917,291.576 454.138,271.063 
			454.138,301.607 447.575,301.607 447.575,257.294 447.575,255.797 454.129,255.797 454.138,255.797 454.138,255.81 
			463.917,276.328 463.917,255.797 		"/>
		<path fill="#FFFFFF" d="M474.42,290.796c0,7.466,5.664,11.199,11.003,11.199c5.34,0,11.003-3.733,11.003-11.199v-24.19
			c0-7.464-5.662-11.195-11.003-11.195c-5.339,0-11.003,3.731-11.003,11.195V290.796z M480.983,266.606
			c0-3.154,2.06-4.633,4.44-4.633c2.383,0,4.439,1.479,4.439,4.633v24.19c0,3.154-2.055,4.633-4.439,4.633
			c-2.38,0-4.44-1.479-4.44-4.633V266.606z"/>
		<path fill="#FFFFFF" d="M500.484,301.607h6.564v-19.561h3.923l6.111,19.561h6.951l-7.079-20.909
			c4.184-2.318,5.662-6.179,5.662-11.454c0-8.88-3.796-13.447-11.582-13.447h-10.549V301.607z M507.048,261.973h3.407
			c4.826,0,5.599,2.508,5.599,7.141c0,4.569-0.708,7.142-5.279,7.142h-3.727V261.973z"/>
		<path fill="#FFFFFF" d="M548.355,265.769c0-5.084-4.375-10.358-10.939-10.358c-7.527,0-11.258,5.598-11.258,12.546
			c0,5.726,1.48,9.458,7.141,11.775l4.7,1.929c3.216,1.287,3.792,2.058,3.792,6.949c0,4.181-0.319,6.818-4.758,6.818
			c-3.343,0-4.634-2.313-4.634-4.695v-2.06h-6.561v2.446c0,6.177,4.824,10.875,11.196,10.875c8.492,0,11.322-5.727,11.322-13.448
			c0-6.692-1.091-10.361-6.883-12.548l-5.019-1.993c-3.411-1.353-3.731-2.575-3.731-6.113c0-3.025,0.834-5.92,4.44-5.92
			c3.345,0,4.629,2.508,4.629,5.534v1.479h6.564V265.769z"/>
		<polygon fill="#FFFFFF" points="552.86,301.607 572.424,301.607 572.424,295.046 559.427,295.046 559.427,281.597 
			570.748,281.597 570.748,275.419 559.427,275.419 559.427,261.973 572.424,261.973 572.424,255.797 552.86,255.797 		"/>
	</g>
</g>
</svg>
