<?xml version="1.0" encoding="UTF-8" standalone="no"?>
<svg width="60px" height="60px" viewBox="0 0 60 60" version="1.1" xmlns="http://www.w3.org/2000/svg" xmlns:xlink="http://www.w3.org/1999/xlink" xmlns:sketch="http://www.bohemiancoding.com/sketch/ns">
    <!-- Generator: Sketch 3.3 (11970) - http://www.bohemiancoding.com/sketch -->
    <title>Untitled-1</title>
    <desc>Created with Sketch.</desc>
    <defs></defs>
    <g id="Page-1" stroke="none" stroke-width="1" fill="none" fill-rule="evenodd" sketch:type="MSPage">
        <g id="Untitled-1" sketch:type="MSLayerGroup">
            <g id="Group" sketch:type="MSShapeGroup">
                <circle id="Oval" fill="#FFFFFF" cx="30" cy="30" r="30"></circle>
                <g transform="translate(5.000000, 18.000000)">
                    <path d="M25,23.5 L33.7,14.8 L42.4,23.5 L45.1,20.8 L38.3,14 L49.4,14 L49.4,10.2 L38.3,10.2 L45.1,3.4 L42.4,0.7 L33.7,9.4 L25,0.7 L16.3,9.4 L7.6,0.7 L4.9,3.4 L11.7,10.2 L0.6,10.2 L0.6,14 L11.7,14 L4.9,20.8 L7.6,23.5 L16.3,14.8 L25,23.5 Z" id="Shape" fill="#000000"></path>
                    <rect id="Rectangle-path" fill="#FFFFFF" transform="translate(24.921310, 12.101910) rotate(-45.008103) translate(-24.921310, -12.101910) " x="20.6713507" y="7.85195072" width="8.49991857" height="8.49991857"></rect>
                </g>
            </g>
        </g>
    </g>
</svg>