<?xml version="1.0" encoding="utf-8"?>
<!-- Generator: Adobe Illustrator 18.1.1, SVG Export Plug-In . SVG Version: 6.00 Build 0)  -->
<!DOCTYPE svg PUBLIC "-//W3C//DTD SVG 1.1//EN" "http://www.w3.org/Graphics/SVG/1.1/DTD/svg11.dtd">
<svg version="1.1" xmlns="http://www.w3.org/2000/svg" xmlns:xlink="http://www.w3.org/1999/xlink" x="0px" y="0px"
	 viewBox="0 0 32 32" enable-background="new 0 0 32 32" xml:space="preserve">
<g id="Layer_1">
</g>
<g id="Layer_2">
	<path fill="#F48020" d="M16,0C7.163,0,0,7.164,0,16c0,8.838,7.163,16,16,16s16-7.162,16-16C32,7.164,24.837,0,16,0z M10.155,23.983
		c-1.173,0-2.123-0.951-2.123-2.125c0-1.174,0.95-2.123,2.123-2.123c1.174,0,2.125,0.949,2.125,2.123
		C12.28,23.031,11.329,23.983,10.155,23.983z M15.485,23.996c0-2.004-0.776-3.887-2.185-5.301c-1.405-1.414-3.276-2.191-5.267-2.191
		v-3.066c5.799,0,10.518,4.736,10.518,10.559H15.485z M20.901,24c0-7.131-5.77-12.934-12.862-12.934V8
		c8.783,0,15.929,7.178,15.929,16H20.901z"/>
</g>
<g id="Layer_3">
</g>
</svg>
