<?xml version="1.0" encoding="utf-8"?>
<!-- Generator: Adobe Illustrator 19.0.0, SVG Export Plug-In . SVG Version: 6.00 Build 0)  -->
<svg version="1.1" id="Layer_1" xmlns="http://www.w3.org/2000/svg" xmlns:xlink="http://www.w3.org/1999/xlink" x="0px" y="0px"
	 viewBox="-277 368.3 56.7 56.7" style="enable-background:new -277 368.3 56.7 56.7;" xml:space="preserve">
<style type="text/css">
	.st0{fill:#EC4C46;}
</style>
<g id="Layer_2">
	<circle cx="-248.8" cy="396.7" r="23.6"/>
</g>
<g id="Layer_1_1_">
	<g>
		<polygon class="st0" points="-260.6,399.1 -258.5,399.1 -258.5,409.3 -256.6,409.3 -256.6,399.1 -254.5,399.1 -254.5,397.4 
			-260.6,397.4 		"/>
		<path class="st0" d="M-248.4,390.7c0.3,0,0.5-0.1,0.6-0.2c0.2-0.2,0.2-0.4,0.2-0.6v-5.3c0-0.2-0.1-0.4-0.2-0.5
			c-0.2-0.1-0.4-0.2-0.6-0.2s-0.4,0.1-0.6,0.2s-0.2,0.3-0.2,0.5v5.3c0,0.3,0.1,0.5,0.2,0.6C-248.8,390.6-248.6,390.7-248.4,390.7z"
			/>
		<path class="st0" d="M-244,400.4c-0.3,0-0.5,0.1-0.8,0.2c-0.3,0.1-0.5,0.3-0.8,0.6v-3.8h-1.8v11.9h1.8v-0.7
			c0.2,0.3,0.5,0.5,0.8,0.6s0.6,0.2,0.9,0.2c0.5,0,0.9-0.2,1.2-0.5s0.4-0.8,0.4-1.4v-4.9c0-0.7-0.1-1.3-0.4-1.6
			C-243,400.6-243.4,400.4-244,400.4z M-244.1,407.3c0,0.3-0.1,0.5-0.2,0.6c-0.1,0.1-0.3,0.2-0.5,0.2c-0.1,0-0.3,0-0.4-0.1
			s-0.3-0.2-0.4-0.3v-5.5c0.1-0.1,0.2-0.2,0.4-0.3c0.1-0.1,0.2-0.1,0.4-0.1s0.4,0.1,0.6,0.2c0.1,0.2,0.2,0.4,0.2,0.7L-244.1,407.3
			L-244.1,407.3L-244.1,407.3z"/>
		<path class="st0" d="M-250.4,407.2c-0.2,0.2-0.3,0.3-0.5,0.5c-0.2,0.1-0.4,0.2-0.5,0.2c-0.2,0-0.3,0-0.4-0.1
			c-0.1-0.1-0.1-0.2-0.1-0.5v-6.8h-1.8v7.4c0,0.5,0.1,0.9,0.3,1.2s0.5,0.4,0.9,0.4c0.3,0,0.7-0.1,1-0.3c0.4-0.2,0.7-0.5,1-0.8v1h1.8
			v-8.8h-1.8L-250.4,407.2L-250.4,407.2z"/>
		<path class="st0" d="M-248.5,368.4c-15.7,0-28.5,12.7-28.5,28.3c0,15.7,12.7,28.3,28.5,28.3s28.5-12.7,28.5-28.3
			S-232.7,368.4-248.5,368.4z M-243.9,382.4h2v7.4c0,0.2,0,0.4,0.1,0.5s0.2,0.2,0.4,0.2c0.1,0,0.3-0.1,0.6-0.2
			c0.2-0.1,0.4-0.3,0.6-0.5v-7.4h2v9.7h-2V391c-0.4,0.4-0.7,0.7-1.1,0.9c-0.4,0.2-0.8,0.3-1.2,0.3c-0.5,0-0.8-0.1-1-0.4
			c-0.2-0.3-0.3-0.7-0.3-1.3C-243.9,390.5-243.9,382.4-243.9,382.4z M-251.2,384.6c0-0.7,0.3-1.3,0.8-1.8c0.5-0.4,1.3-0.7,2.2-0.7
			c0.8,0,1.5,0.2,2,0.7s0.8,1.1,0.8,1.8v5c0,0.8-0.3,1.5-0.8,2s-1.2,0.7-2.1,0.7c-0.9,0-1.6-0.2-2.1-0.7s-0.8-1.1-0.8-2
			L-251.2,384.6L-251.2,384.6z M-256.7,379l1.5,5.3h0.1l1.4-5.3h2.3l-2.6,7.7v5.5h-2.2V387l-2.7-7.9L-256.7,379L-256.7,379z
			 M-230.6,406.6c0,3.5-2.9,6.4-6.4,6.4h-22.2c-3.5,0-6.4-2.8-6.4-6.4v-5.1c0-3.5,2.9-6.4,6.4-6.4h22.2c3.5,0,6.4,2.8,6.4,6.4V406.6
			L-230.6,406.6z"/>
		<path class="st0" d="M-238.7,400.3c-0.8,0-1.4,0.2-1.9,0.7s-0.8,1.1-0.8,1.9v4c0,0.8,0.2,1.5,0.7,2s1.1,0.7,1.9,0.7
			c0.9,0,1.5-0.2,2-0.7c0.4-0.5,0.7-1.1,0.7-2v-0.5h-1.8v0.4c0,0.5-0.1,0.9-0.2,1c-0.1,0.2-0.3,0.2-0.6,0.2s-0.5-0.1-0.6-0.3
			s-0.2-0.5-0.2-1v-1.6h3.4v-2.2c0-0.8-0.2-1.5-0.6-1.9C-237.2,400.5-237.9,400.3-238.7,400.3z M-238,403.8h-1.6v-0.9
			c0-0.4,0.1-0.6,0.2-0.8c0.1-0.2,0.3-0.2,0.6-0.2s0.5,0.1,0.6,0.2c0.1,0.2,0.2,0.4,0.2,0.8V403.8L-238,403.8z"/>
	</g>
</g>
</svg>
