<?xml version="1.0" encoding="utf-8"?>
<!-- Generator: Adobe Illustrator 19.0.0, SVG Export Plug-In . SVG Version: 6.00 Build 0)  -->
<svg version="1.1" xmlns="http://www.w3.org/2000/svg" xmlns:xlink="http://www.w3.org/1999/xlink" x="0px" y="0px"
	 viewBox="-277 368.3 56.7 56.7" style="enable-background:new -277 368.3 56.7 56.7;" xml:space="preserve">
<style type="text/css">
	.st0{fill:#FFFFFF;}
</style>
<g id="Layer_2">
	<circle cx="-249.1" cy="396.6" r="23.6"/>
</g>
<g id="Layer_1">
	<g>
		<polygon class="st0" points="-260.9,399 -258.8,399 -258.8,409.2 -256.9,409.2 -256.9,399 -254.8,399 -254.8,397.3 -260.9,397.3 
					"/>
		<path class="st0" d="M-248.7,390.6c0.3,0,0.5-0.1,0.6-0.2c0.2-0.2,0.2-0.4,0.2-0.6v-5.3c0-0.2-0.1-0.4-0.2-0.5
			c-0.2-0.1-0.4-0.2-0.6-0.2c-0.2,0-0.4,0.1-0.6,0.2c-0.2,0.1-0.2,0.3-0.2,0.5v5.3c0,0.3,0.1,0.5,0.2,0.6
			C-249.1,390.5-248.9,390.6-248.7,390.6z"/>
		<path class="st0" d="M-244.3,400.3c-0.3,0-0.5,0.1-0.8,0.2c-0.3,0.1-0.5,0.3-0.8,0.6v-3.8h-1.8v11.9h1.8v-0.7
			c0.2,0.3,0.5,0.5,0.8,0.6c0.3,0.1,0.6,0.2,0.9,0.2c0.5,0,0.9-0.2,1.2-0.5c0.3-0.3,0.4-0.8,0.4-1.4v-4.9c0-0.7-0.1-1.3-0.4-1.6
			C-243.3,400.5-243.7,400.3-244.3,400.3z M-244.4,407.2c0,0.3-0.1,0.5-0.2,0.6c-0.1,0.1-0.3,0.2-0.5,0.2c-0.1,0-0.3,0-0.4-0.1
			c-0.1-0.1-0.3-0.2-0.4-0.3v-5.5c0.1-0.1,0.2-0.2,0.4-0.3c0.1-0.1,0.2-0.1,0.4-0.1c0.2,0,0.4,0.1,0.6,0.2c0.1,0.2,0.2,0.4,0.2,0.7
			V407.2z"/>
		<path class="st0" d="M-250.7,407.1c-0.2,0.2-0.3,0.3-0.5,0.5c-0.2,0.1-0.4,0.2-0.5,0.2c-0.2,0-0.3,0-0.4-0.1
			c-0.1-0.1-0.1-0.2-0.1-0.5v-6.8h-1.8v7.4c0,0.5,0.1,0.9,0.3,1.2c0.2,0.3,0.5,0.4,0.9,0.4c0.3,0,0.7-0.1,1-0.3
			c0.4-0.2,0.7-0.5,1-0.8v1h1.8v-8.8h-1.8L-250.7,407.1L-250.7,407.1z"/>
		<path class="st0" d="M-248.8,368.3c-15.7,0-28.5,12.7-28.5,28.3c0,15.7,12.7,28.3,28.5,28.3s28.5-12.7,28.5-28.3
			C-220.3,381-233,368.3-248.8,368.3z M-244.2,382.3h2v7.4c0,0.2,0,0.4,0.1,0.5c0.1,0.1,0.2,0.2,0.4,0.2c0.1,0,0.3-0.1,0.6-0.2
			c0.2-0.1,0.4-0.3,0.6-0.5v-7.4h2v9.7h-2v-1.1c-0.4,0.4-0.7,0.7-1.1,0.9c-0.4,0.2-0.8,0.3-1.2,0.3c-0.5,0-0.8-0.1-1-0.4
			c-0.2-0.3-0.3-0.7-0.3-1.3C-244.2,390.4-244.2,382.3-244.2,382.3z M-251.5,384.5c0-0.7,0.3-1.3,0.8-1.8c0.5-0.4,1.3-0.7,2.2-0.7
			c0.8,0,1.5,0.2,2,0.7c0.5,0.5,0.8,1.1,0.8,1.8v5c0,0.8-0.3,1.5-0.8,2c-0.5,0.5-1.2,0.7-2.1,0.7c-0.9,0-1.6-0.2-2.1-0.7
			c-0.5-0.5-0.8-1.1-0.8-2L-251.5,384.5L-251.5,384.5z M-257,378.9l1.5,5.3h0.1l1.4-5.3h2.3l-2.6,7.7v5.5h-2.2v-5.2l-2.7-7.9H-257z
			 M-230.9,406.5c0,3.5-2.9,6.4-6.4,6.4h-22.2c-3.5,0-6.4-2.8-6.4-6.4v-5.1c0-3.5,2.9-6.4,6.4-6.4h22.2c3.5,0,6.4,2.8,6.4,6.4V406.5
			z"/>
		<path class="st0" d="M-239,400.2c-0.8,0-1.4,0.2-1.9,0.7c-0.5,0.5-0.8,1.1-0.8,1.9v4c0,0.8,0.2,1.5,0.7,2c0.5,0.5,1.1,0.7,1.9,0.7
			c0.9,0,1.5-0.2,2-0.7c0.4-0.5,0.7-1.1,0.7-2v-0.5h-1.8v0.4c0,0.5-0.1,0.9-0.2,1c-0.1,0.2-0.3,0.2-0.6,0.2c-0.3,0-0.5-0.1-0.6-0.3
			c-0.1-0.2-0.2-0.5-0.2-1V405h3.4v-2.2c0-0.8-0.2-1.5-0.6-1.9C-237.5,400.4-238.2,400.2-239,400.2z M-238.3,403.7h-1.6v-0.9
			c0-0.4,0.1-0.6,0.2-0.8c0.1-0.2,0.3-0.2,0.6-0.2c0.3,0,0.5,0.1,0.6,0.2c0.1,0.2,0.2,0.4,0.2,0.8L-238.3,403.7L-238.3,403.7z"/>
	</g>
</g>
</svg>
