<?xml version="1.0" encoding="utf-8"?>
<!-- Generator: Adobe Illustrator 18.1.1, SVG Export Plug-In . SVG Version: 6.00 Build 0)  -->
<!DOCTYPE svg PUBLIC "-//W3C//DTD SVG 1.1//EN" "http://www.w3.org/Graphics/SVG/1.1/DTD/svg11.dtd">
<svg version="1.1" xmlns="http://www.w3.org/2000/svg" xmlns:xlink="http://www.w3.org/1999/xlink" x="0px" y="0px"
	 viewBox="0 0 32 32.83" enable-background="new 0 0 32 32.83" xml:space="preserve">
<g id="Layer_1">
</g>
<g id="Layer_2">
	<path fill="#2AA9E0" d="M16,0.83c-8.836,0-16,7.164-16,16c0,8.838,7.164,16,16,16c8.836,0,16-7.162,16-16
		C32,7.994,24.836,0.83,16,0.83z M22.362,13.569c0.007,0.141,0.01,0.281,0.01,0.424c0,4.338-3.302,9.34-9.34,9.34
		c-1.854,0-3.579-0.543-5.032-1.475c0.258,0.029,0.519,0.045,0.783,0.045c1.539,0,2.953-0.523,4.076-1.404
		c-1.436-0.027-2.648-0.977-3.065-2.279c0.2,0.037,0.405,0.059,0.617,0.059c0.3,0,0.59-0.041,0.864-0.115
		c-1.5-0.303-2.633-1.629-2.633-3.219c0-0.014,0-0.027,0-0.041c0.443,0.246,0.949,0.393,1.487,0.41
		c-0.881-0.588-1.46-1.594-1.46-2.733c0-0.601,0.162-1.166,0.444-1.65c1.618,1.986,4.038,3.293,6.766,3.43
		c-0.056-0.24-0.085-0.49-0.085-0.748c0-1.812,1.47-3.281,3.283-3.281c0.943,0,1.797,0.399,2.396,1.035
		c0.747-0.146,1.45-0.42,2.085-0.797c-0.246,0.768-0.766,1.41-1.443,1.816c0.664-0.078,1.297-0.256,1.885-0.516
		C23.561,12.528,23.004,13.106,22.362,13.569z"/>
</g>
<g id="Layer_3">
</g>
</svg>
