<?xml version="1.0" encoding="UTF-8" standalone="no"?>
<svg width="489px" height="65px" viewBox="0 0 489 65" version="1.1" xmlns="http://www.w3.org/2000/svg" xmlns:xlink="http://www.w3.org/1999/xlink" xmlns:sketch="http://www.bohemiancoding.com/sketch/ns">
    <!-- Generator: Sketch 3.3.2 (12043) - http://www.bohemiancoding.com/sketch -->
    <title>Group</title>
    <desc>Created with Sketch.</desc>
    <defs></defs>
    <g id="Page-1" stroke="none" stroke-width="1" fill="none" fill-rule="evenodd" sketch:type="MSPage">
        <g id="Artboard-1" sketch:type="MSArtboardGroup" transform="translate(-202.000000, -595.000000)" fill="#FFFFFF">
            <g id="Group" sketch:type="MSLayerGroup" transform="translate(202.000000, 595.000000)">
                <path d="M32.2006,44.5825 L41.3746,35.3845 L50.5706,44.5825 L53.4016,41.7545 L46.2036,34.5575 L57.9426,34.5575 L57.9426,30.5545 L46.2036,30.5545 L53.4016,23.3585 L50.5706,20.5285 L41.3856,29.7145 L32.2006,20.5285 L23.0166,29.7145 L13.8316,20.5285 L11.0006,23.3585 L18.1966,30.5545 L6.4596,30.5545 L6.4596,34.5575 L18.1966,34.5575 L11.0006,41.7545 L13.8316,44.5825 L23.0286,35.3845 L32.2006,44.5825 Z M64.1596,32.5575 C64.1596,50.2055 49.8516,64.5145 32.2016,64.5145 C14.5496,64.5145 0.2396,50.2055 0.2396,32.5575 C0.2396,14.9045 14.5496,0.5945 32.2016,0.5945 C49.8516,0.5945 64.1596,14.9045 64.1596,32.5575 L64.1596,32.5575 Z" id="Fill-37" sketch:type="MSShapeGroup"></path>
                <path d="M32.2006,26.1904 L25.8346,32.5574 L32.2016,38.9224 L38.5676,32.5574 L32.2006,26.1904 Z" id="Fill-38" sketch:type="MSShapeGroup"></path>
                <path d="M99.8672,5.1915 L99.8672,59.2145 L92.1272,59.2145 L92.1272,47.3855 L80.5952,23.1945 L80.5952,59.2145 L72.8542,59.2145 L72.8542,6.9565 L72.8542,5.1915 L80.5842,5.1915 L80.5952,5.1915 L80.5952,5.2065 L92.1272,29.4025 L92.1272,5.1915 L99.8672,5.1915 Z" id="Fill-39" sketch:type="MSShapeGroup"></path>
                <path d="M112.2521,17.9382 C112.2521,14.2192 114.6821,12.4742 117.4891,12.4742 C120.2991,12.4742 122.7231,14.2192 122.7231,17.9382 L122.7231,46.4652 C122.7231,50.1852 120.2991,51.9282 117.4891,51.9282 C114.6821,51.9282 112.2521,50.1852 112.2521,46.4652 L112.2521,17.9382 Z M104.5121,46.4652 C104.5121,55.2702 111.1921,59.6722 117.4891,59.6722 C123.7861,59.6722 130.4641,55.2702 130.4641,46.4652 L130.4641,17.9382 C130.4641,9.1362 123.7861,4.7362 117.4891,4.7362 C111.1921,4.7362 104.5121,9.1362 104.5121,17.9382 L104.5121,46.4652 Z" id="Fill-40" sketch:type="MSShapeGroup"></path>
                <path d="M142.9906,12.4744 L147.0076,12.4744 C152.6986,12.4744 153.6116,15.4324 153.6116,20.8964 C153.6116,26.2844 152.7756,29.3184 147.3856,29.3184 L142.9906,29.3184 L142.9906,12.4744 Z M135.2496,59.2144 L142.9906,59.2144 L142.9906,36.1464 L147.6176,36.1464 L154.8246,59.2144 L163.0216,59.2144 L154.6736,34.5574 C159.6066,31.8244 161.3496,27.2704 161.3496,21.0494 C161.3496,10.5774 156.8736,5.1914 147.6906,5.1914 L135.2496,5.1914 L135.2496,59.2144 Z" id="Fill-41" sketch:type="MSShapeGroup"></path>
                <path d="M191.7035,16.9514 C191.7035,10.9564 186.5445,4.7354 178.8035,4.7354 C169.9265,4.7354 165.5275,11.3374 165.5275,19.5314 C165.5275,26.2844 167.2725,30.6844 173.9485,33.4174 L179.4915,35.6924 C183.2835,37.2104 183.9635,38.1204 183.9635,43.8884 C183.9635,48.8194 183.5865,51.9284 178.3525,51.9284 C174.4105,51.9284 172.8865,49.2014 172.8865,46.3924 L172.8865,43.9634 L165.1495,43.9634 L165.1495,46.8474 C165.1495,54.1314 170.8385,59.6724 178.3525,59.6724 C188.3675,59.6724 191.7035,52.9184 191.7035,43.8124 C191.7035,35.9214 190.4165,31.5944 183.5865,29.0154 L177.6685,26.6654 C173.6465,25.0694 173.2675,23.6284 173.2675,19.4564 C173.2675,15.8884 174.2515,12.4744 178.5035,12.4744 C182.4485,12.4744 183.9635,15.4324 183.9635,19.0004 L183.9635,20.7444 L191.7035,20.7444 L191.7035,16.9514 Z" id="Fill-42" sketch:type="MSShapeGroup"></path>
                <path d="M197.0164,59.2149 L220.0874,59.2149 L220.0874,51.4769 L204.7594,51.4769 L204.7594,35.6169 L218.1114,35.6169 L218.1114,28.3319 L204.7594,28.3319 L204.7594,12.4749 L220.0874,12.4749 L220.0874,5.1919 L197.0164,5.1919 L197.0164,59.2149 Z" id="Fill-43" sketch:type="MSShapeGroup"></path>
                <path d="M256.2358,13.236 L250.8498,40.393 L261.6978,40.393 L256.2358,13.236 Z M265.4908,59.206 L262.5318,44.413 L249.9398,44.413 L247.0568,59.206 L242.2018,59.206 L254.2628,5.195 L258.4358,5.195 L270.2698,59.206 L265.4908,59.206 Z" id="Fill-44" sketch:type="MSShapeGroup"></path>
                <path d="M286.2058,9.2152 L279.9098,9.2152 L279.9098,31.2902 L286.2058,31.2902 C291.5918,31.2902 293.2608,27.3452 293.2608,20.2902 C293.2608,13.2362 291.5918,9.2152 286.2058,9.2152 M286.0548,35.3102 L279.9098,35.3102 L279.9098,59.2052 L275.4348,59.2052 L275.4348,5.1952 L286.0548,5.1952 C292.5018,5.1952 297.7368,7.5462 297.7368,20.2152 C297.7368,31.5932 293.7158,35.3102 286.0548,35.3102" id="Fill-45" sketch:type="MSShapeGroup"></path>
                <path d="M313.6722,9.2152 L307.3762,9.2152 L307.3762,31.2902 L313.6722,31.2902 C319.0582,31.2902 320.7272,27.3452 320.7272,20.2902 C320.7272,13.2362 319.0582,9.2152 313.6722,9.2152 M313.5212,35.3102 L307.3762,35.3102 L307.3762,59.2052 L302.9012,59.2052 L302.9012,5.1952 L313.5212,5.1952 C319.9682,5.1952 325.2032,7.5462 325.2032,20.2152 C325.2032,31.5932 321.1822,35.3102 313.5212,35.3102" id="Fill-46" sketch:type="MSShapeGroup"></path>
                <path d="M330.3672,59.2056 L330.3672,5.1946 L334.8422,5.1946 L334.8422,55.1856 L349.1802,55.1856 L349.1802,59.2056 L330.3672,59.2056 Z" id="Fill-47" sketch:type="MSShapeGroup"></path>
                <path d="M354.344,5.195 L358.819,5.195 L358.819,59.206 L354.344,59.206 L354.344,5.195 Z" id="Fill-48" sketch:type="MSShapeGroup"></path>
                <path d="M378.0181,13.236 L372.6321,40.393 L383.4801,40.393 L378.0181,13.236 Z M387.2731,59.206 L384.3141,44.413 L371.7221,44.413 L368.8391,59.206 L363.9841,59.206 L376.0451,5.195 L380.2181,5.195 L392.0521,59.206 L387.2731,59.206 Z" id="Fill-49" sketch:type="MSShapeGroup"></path>
                <path d="M416.7875,59.2056 L401.6915,17.1046 L401.6915,59.2056 L397.2165,59.2056 L397.2165,5.1946 L401.6915,5.1946 L416.7875,47.2966 L416.7115,5.1946 L421.1875,5.1946 L421.1875,59.2056 L416.7875,59.2056 Z" id="Fill-50" sketch:type="MSShapeGroup"></path>
                <path d="M445.6194,57.2336 C443.7984,58.8266 441.3714,59.8126 438.1854,59.8126 C434.6964,59.8126 431.9654,58.5986 430.1444,56.6276 C426.7304,52.9856 426.3514,48.7376 426.3514,32.2006 C426.3514,15.6636 426.7304,11.4156 430.1444,7.7736 C431.9654,5.8016 434.6964,4.5876 438.1854,4.5876 C441.5994,4.5876 444.1024,5.6506 445.9224,7.4706 C448.2744,9.8226 449.3364,13.4626 449.4124,17.5596 L444.9364,17.5596 C444.9364,14.8286 444.4054,12.1736 442.8124,10.4296 C441.7504,9.2906 440.3094,8.6086 438.1854,8.6086 C435.9854,8.6086 434.4684,9.3676 433.4064,10.5806 C431.2064,13.2356 430.8274,16.3456 430.8274,32.2006 C430.8274,48.0546 431.2064,51.1656 433.4064,53.8196 C434.4684,55.0336 435.9854,55.7926 438.1854,55.7926 C440.3094,55.7926 441.7504,55.1096 442.8124,53.9716 C444.4054,52.2266 444.9364,49.5716 444.9364,46.8406 L449.4124,46.8406 C449.3364,51.1656 448.1984,54.8816 445.6194,57.2336" id="Fill-51" sketch:type="MSShapeGroup"></path>
                <path d="M454.5765,59.2056 L454.5765,5.1946 L473.3895,5.1946 L473.3895,9.2156 L459.0515,9.2156 L459.0515,30.1526 L471.4165,30.1526 L471.4165,34.1726 L459.0515,34.1726 L459.0515,55.1856 L473.3895,55.1856 L473.3895,59.2056 L454.5765,59.2056 Z" id="Fill-52" sketch:type="MSShapeGroup"></path>
                <path d="M480.7167,5.8333 L480.7167,13.8413 L479.9997,13.8413 L479.9997,5.8333 L478.5537,5.8333 L478.5537,5.1893 L482.1627,5.1893 L482.1627,5.8333 L480.7167,5.8333 Z" id="Fill-53" sketch:type="MSShapeGroup"></path>
                <path d="M487.7496,13.8409 L487.7496,6.8779 L486.1696,11.4479 L485.6476,11.4479 L484.0926,7.0239 L484.0926,13.8409 L483.3756,13.8409 L483.3756,5.1889 L484.0926,5.1889 L485.9146,10.2809 L487.7496,5.1889 L488.4666,5.1889 L488.4666,13.8409 L487.7496,13.8409 Z" id="Fill-54" sketch:type="MSShapeGroup"></path>
            </g>
        </g>
    </g>
</svg>