<?xml version="1.0" encoding="UTF-8" standalone="no"?>
<svg width="720px" height="65px" viewBox="0 0 720 65" version="1.1" xmlns="http://www.w3.org/2000/svg" xmlns:xlink="http://www.w3.org/1999/xlink" xmlns:sketch="http://www.bohemiancoding.com/sketch/ns">
    <!-- Generator: Sketch 3.3.2 (12043) - http://www.bohemiancoding.com/sketch -->
    <title>Group Copy 2</title>
    <desc>Created with Sketch.</desc>
    <defs></defs>
    <g id="Page-1" stroke="none" stroke-width="1" fill="none" fill-rule="evenodd" sketch:type="MSPage">
        <g id="Artboard-1" sketch:type="MSArtboardGroup" transform="translate(-202.000000, -810.000000)" fill="#FFFFFF">
            <g id="Group-Copy-2" sketch:type="MSLayerGroup" transform="translate(202.000000, 810.000000)">
                <path d="M32.2006,44.1019 L41.3746,34.9039 L50.5706,44.1019 L53.4016,41.2739 L46.2036,34.0769 L57.9426,34.0769 L57.9426,30.0739 L46.2036,30.0739 L53.4016,22.8769 L50.5706,20.0479 L41.3856,29.2339 L32.2006,20.0479 L23.0166,29.2339 L13.8316,20.0479 L11.0006,22.8769 L18.1966,30.0739 L6.4596,30.0739 L6.4596,34.0769 L18.1966,34.0769 L11.0006,41.2739 L13.8316,44.1019 L23.0286,34.9039 L32.2006,44.1019 Z M64.1596,32.0769 C64.1596,49.7249 49.8516,64.0339 32.2016,64.0339 C14.5496,64.0339 0.2396,49.7249 0.2396,32.0769 C0.2396,14.4239 14.5496,0.1139 32.2016,0.1139 C49.8516,0.1139 64.1596,14.4239 64.1596,32.0769 L64.1596,32.0769 Z" id="Fill-1" sketch:type="MSShapeGroup"></path>
                <path d="M32.2006,25.7097 L25.8346,32.0767 L32.2016,38.4417 L38.5676,32.0767 L32.2006,25.7097 Z" id="Fill-3" sketch:type="MSShapeGroup"></path>
                <path d="M99.8672,4.7109 L99.8672,58.7339 L92.1272,58.7339 L92.1272,46.9049 L80.5952,22.7139 L80.5952,58.7339 L72.8542,58.7339 L72.8542,6.4759 L72.8542,4.7109 L80.5842,4.7109 L80.5952,4.7109 L80.5952,4.7259 L92.1272,28.9219 L92.1272,4.7109 L99.8672,4.7109 Z" id="Fill-5" sketch:type="MSShapeGroup"></path>
                <path d="M112.2521,17.4575 C112.2521,13.7385 114.6821,11.9935 117.4891,11.9935 C120.2991,11.9935 122.7231,13.7385 122.7231,17.4575 L122.7231,45.9845 C122.7231,49.7045 120.2991,51.4475 117.4891,51.4475 C114.6821,51.4475 112.2521,49.7045 112.2521,45.9845 L112.2521,17.4575 Z M104.5121,45.9845 C104.5121,54.7895 111.1921,59.1915 117.4891,59.1915 C123.7861,59.1915 130.4641,54.7895 130.4641,45.9845 L130.4641,17.4575 C130.4641,8.6545 123.7861,4.2555 117.4891,4.2555 C111.1921,4.2555 104.5121,8.6545 104.5121,17.4575 L104.5121,45.9845 Z" id="Fill-7" sketch:type="MSShapeGroup"></path>
                <path d="M142.9906,11.9937 L147.0076,11.9937 C152.6986,11.9937 153.6116,14.9517 153.6116,20.4157 C153.6116,25.8037 152.7756,28.8377 147.3856,28.8377 L142.9906,28.8377 L142.9906,11.9937 Z M135.2496,58.7337 L142.9906,58.7337 L142.9906,35.6657 L147.6176,35.6657 L154.8246,58.7337 L163.0216,58.7337 L154.6736,34.0767 C159.6066,31.3437 161.3496,26.7897 161.3496,20.5687 C161.3496,10.0967 156.8736,4.7107 147.6906,4.7107 L135.2496,4.7107 L135.2496,58.7337 Z" id="Fill-9" sketch:type="MSShapeGroup"></path>
                <path d="M191.7035,16.4707 C191.7035,10.4757 186.5445,4.2547 178.8035,4.2547 C169.9265,4.2547 165.5275,10.8567 165.5275,19.0507 C165.5275,25.8037 167.2725,30.2037 173.9485,32.9367 L179.4915,35.2117 C183.2835,36.7297 183.9635,37.6397 183.9635,43.4077 C183.9635,48.3387 183.5865,51.4477 178.3525,51.4477 C174.4105,51.4477 172.8865,48.7197 172.8865,45.9117 L172.8865,43.4827 L165.1495,43.4827 L165.1495,46.3667 C165.1495,53.6507 170.8385,59.1917 178.3525,59.1917 C188.3675,59.1917 191.7035,52.4377 191.7035,43.3317 C191.7035,35.4407 190.4165,31.1137 183.5865,28.5347 L177.6685,26.1847 C173.6465,24.5887 173.2675,23.1477 173.2675,18.9757 C173.2675,15.4077 174.2515,11.9937 178.5035,11.9937 C182.4485,11.9937 183.9635,14.9517 183.9635,18.5197 L183.9635,20.2637 L191.7035,20.2637 L191.7035,16.4707 Z" id="Fill-11" sketch:type="MSShapeGroup"></path>
                <path d="M197.0164,58.7342 L220.0874,58.7342 L220.0874,50.9962 L204.7594,50.9962 L204.7594,35.1362 L218.1114,35.1362 L218.1114,27.8512 L204.7594,27.8512 L204.7594,11.9942 L220.0874,11.9942 L220.0874,4.7112 L197.0164,4.7112 L197.0164,58.7342 Z" id="Fill-13" sketch:type="MSShapeGroup"></path>
                <path d="M242.202,4.758 L246.675,4.758 L246.675,58.734 L242.202,58.734 L242.202,4.758 Z" id="Fill-15" sketch:type="MSShapeGroup"></path>
                <path d="M271.3939,58.734 L256.3079,16.66 L256.3079,58.734 L251.8359,58.734 L251.8359,4.758 L256.3079,4.758 L271.3939,46.832 L271.3179,4.758 L275.7909,4.758 L275.7909,58.734 L271.3939,58.734 Z" id="Fill-17" sketch:type="MSShapeGroup"></path>
                <path d="M294.4463,8.776 L294.4463,58.734 L289.9733,58.734 L289.9733,8.776 L280.9523,8.776 L280.9523,4.758 L303.4673,4.758 L303.4673,8.776 L294.4463,8.776 Z" id="Fill-18" sketch:type="MSShapeGroup"></path>
                <path d="M308.6287,58.734 L308.6287,4.758 L327.4287,4.758 L327.4287,8.776 L313.1017,8.776 L313.1017,29.699 L325.4577,29.699 L325.4577,33.717 L313.1017,33.717 L313.1017,54.716 L327.4287,54.716 L327.4287,58.734 L308.6287,58.734 Z" id="Fill-19" sketch:type="MSShapeGroup"></path>
                <path d="M332.5902,58.734 L332.5902,4.758 L337.0632,4.758 L337.0632,54.716 L351.3902,54.716 L351.3902,58.734 L332.5902,58.734 Z" id="Fill-20" sketch:type="MSShapeGroup"></path>
                <path d="M356.5518,58.734 L356.5518,4.758 L361.0248,4.758 L361.0248,54.716 L375.3518,54.716 L375.3518,58.734 L356.5518,58.734 Z" id="Fill-21" sketch:type="MSShapeGroup"></path>
                <path d="M380.513,4.758 L384.986,4.758 L384.986,58.734 L380.513,58.734 L380.513,4.758 Z" id="Fill-22" sketch:type="MSShapeGroup"></path>
                <path d="M401.973,59.3401 C398.486,59.3401 395.757,58.1271 393.937,56.1561 C390.525,52.5181 390.147,48.2721 390.147,31.7461 C390.147,15.2191 390.525,10.9741 393.937,7.3351 C395.757,5.3641 398.486,4.1511 401.973,4.1511 C405.46,4.1511 407.962,5.2881 409.781,7.1081 C412.056,9.4581 413.192,13.0211 413.192,17.1151 L408.72,17.1151 C408.72,12.7941 407.431,8.1691 401.973,8.1691 C399.774,8.1691 398.258,8.9271 397.197,10.1401 C394.999,12.7941 394.619,15.9011 394.619,31.7461 C394.619,47.5901 394.999,50.6981 397.197,53.3511 C398.258,54.5641 399.774,55.3221 401.973,55.3221 C405.839,55.3221 408.72,52.2901 408.72,47.2111 L408.72,33.9441 L401.973,33.9441 L401.973,30.1541 L413.192,30.1541 L413.192,47.2111 C413.192,55.2471 407.962,59.3401 401.973,59.3401" id="Fill-23" sketch:type="MSShapeGroup"></path>
                <path d="M418.3535,58.734 L418.3535,4.758 L437.1535,4.758 L437.1535,8.776 L422.8265,8.776 L422.8265,29.699 L435.1825,29.699 L435.1825,33.717 L422.8265,33.717 L422.8265,54.716 L437.1535,54.716 L437.1535,58.734 L418.3535,58.734 Z" id="Fill-24" sketch:type="MSShapeGroup"></path>
                <path d="M461.8734,58.734 L446.7874,16.66 L446.7874,58.734 L442.3154,58.734 L442.3154,4.758 L446.7874,4.758 L461.8734,46.832 L461.7974,4.758 L466.2704,4.758 L466.2704,58.734 L461.8734,58.734 Z" id="Fill-25" sketch:type="MSShapeGroup"></path>
                <path d="M490.6866,56.7627 C488.8676,58.3547 486.4416,59.3397 483.2576,59.3397 C479.7706,59.3397 477.0406,58.1277 475.2216,56.1567 C471.8096,52.5177 471.4316,48.2717 471.4316,31.7457 C471.4316,15.2197 471.8096,10.9737 475.2216,7.3347 C477.0406,5.3647 479.7706,4.1507 483.2576,4.1507 C486.6686,4.1507 489.1706,5.2127 490.9896,7.0317 C493.3406,9.3817 494.4016,13.0207 494.4766,17.1147 L490.0046,17.1147 C490.0046,14.3857 489.4736,11.7317 487.8816,9.9887 C486.8206,8.8517 485.3796,8.1697 483.2576,8.1697 C481.0586,8.1697 479.5426,8.9277 478.4816,10.1397 C476.2836,12.7937 475.9036,15.9017 475.9036,31.7457 C475.9036,47.5907 476.2836,50.6977 478.4816,53.3507 C479.5426,54.5647 481.0586,55.3227 483.2576,55.3227 C485.3796,55.3227 486.8206,54.6397 487.8816,53.5027 C489.4736,51.7597 490.0046,49.1057 490.0046,46.3767 L494.4766,46.3767 C494.4016,50.6977 493.2636,54.4127 490.6866,56.7627" id="Fill-26" sketch:type="MSShapeGroup"></path>
                <path d="M499.6379,58.734 L499.6379,4.758 L518.4389,4.758 L518.4389,8.776 L504.1109,8.776 L504.1109,29.699 L516.4669,29.699 L516.4669,33.717 L504.1109,33.717 L504.1109,54.716 L518.4389,54.716 L518.4389,58.734 L499.6379,58.734 Z" id="Fill-27" sketch:type="MSShapeGroup"></path>
                <path d="M559.1726,56.3078 C557.3536,58.1268 554.6246,59.1888 550.7576,59.1888 C547.1196,59.1888 544.2386,58.2788 542.2676,56.3078 C539.8416,53.8058 539.0836,51.1528 539.0836,45.2398 L543.5566,45.2398 C543.5566,49.4088 544.0116,51.6078 545.6786,53.2758 C546.8156,54.4128 548.4836,55.0948 550.7576,55.0948 C553.2596,55.0948 554.8516,54.4128 555.9126,53.2758 C557.6566,51.3808 558.0356,49.0308 558.0356,44.7848 C558.0356,38.0378 556.9746,35.6118 552.3496,33.7168 L546.5886,31.3668 C541.0546,29.0918 539.4626,25.9848 539.4626,17.8728 C539.4626,13.2488 540.6756,9.5338 543.1776,7.1838 C545.1486,5.2878 547.7256,4.3028 551.0616,4.3028 C554.5486,4.3028 557.2776,5.3648 559.1726,7.2598 C561.8266,9.9128 562.4326,13.0208 562.4326,17.7208 L557.9596,17.7208 C557.9596,14.3098 557.5046,12.1108 555.9126,10.2918 C554.8516,9.0788 553.2596,8.3208 550.9856,8.3208 C548.8626,8.3208 547.3466,9.0028 546.2856,10.0648 C544.6176,11.7318 543.9346,14.4608 543.9346,17.7968 C543.9346,24.0128 544.8446,25.8328 549.7726,27.8798 L555.5346,30.2298 C561.3716,32.5798 562.5086,36.8248 562.5086,44.6338 C562.5086,50.3188 561.5986,53.8818 559.1726,56.3078" id="Fill-28" sketch:type="MSShapeGroup"></path>
                <path d="M567.6697,58.734 L567.6697,4.758 L586.4697,4.758 L586.4697,8.776 L572.1427,8.776 L572.1427,29.699 L584.4987,29.699 L584.4987,33.717 L572.1427,33.717 L572.1427,54.716 L586.4697,54.716 L586.4697,58.734 L567.6697,58.734 Z" id="Fill-29" sketch:type="MSShapeGroup"></path>
                <path d="M602.3958,8.776 L596.1038,8.776 L596.1038,30.533 L602.3958,30.533 C607.7788,30.533 609.4468,26.667 609.4468,19.692 C609.4468,12.718 607.7788,8.776 602.3958,8.776 L602.3958,8.776 Z M610.8868,58.734 L603.0778,34.551 L596.1038,34.551 L596.1038,58.734 L591.6308,58.734 L591.6308,4.758 L602.2448,4.758 C608.7638,4.758 613.9188,7.108 613.9188,19.692 C613.9188,28.031 611.7208,32.049 607.2478,33.717 L615.6628,58.734 L610.8868,58.734 Z" id="Fill-30" sketch:type="MSShapeGroup"></path>
                <path d="M631.5826,58.734 L627.1856,58.734 L615.6626,4.758 L620.5906,4.758 L629.3846,50.698 L638.1786,4.758 L643.1056,4.758 L631.5826,58.734 Z" id="Fill-31" sketch:type="MSShapeGroup"></path>
                <path d="M648.267,4.758 L652.74,4.758 L652.74,58.734 L648.267,58.734 L648.267,4.758 Z" id="Fill-32" sketch:type="MSShapeGroup"></path>
                <path d="M677.1558,56.7627 C675.3368,58.3547 672.9108,59.3397 669.7268,59.3397 C666.2398,59.3397 663.5098,58.1277 661.6908,56.1567 C658.2788,52.5177 657.9008,48.2717 657.9008,31.7457 C657.9008,15.2197 658.2788,10.9737 661.6908,7.3347 C663.5098,5.3647 666.2398,4.1507 669.7268,4.1507 C673.1378,4.1507 675.6398,5.2127 677.4588,7.0317 C679.8098,9.3817 680.8708,13.0207 680.9458,17.1147 L676.4738,17.1147 C676.4738,14.3857 675.9428,11.7317 674.3508,9.9887 C673.2898,8.8517 671.8488,8.1697 669.7268,8.1697 C667.5278,8.1697 666.0118,8.9277 664.9508,10.1397 C662.7518,12.7937 662.3728,15.9017 662.3728,31.7457 C662.3728,47.5907 662.7518,50.6977 664.9508,53.3507 C666.0118,54.5647 667.5278,55.3227 669.7268,55.3227 C671.8488,55.3227 673.2898,54.6397 674.3508,53.5027 C675.9428,51.7597 676.4738,49.1057 676.4738,46.3767 L680.9458,46.3767 C680.8708,50.6977 679.7328,54.4127 677.1558,56.7627" id="Fill-33" sketch:type="MSShapeGroup"></path>
                <path d="M686.1071,58.734 L686.1071,4.758 L704.9071,4.758 L704.9071,8.776 L690.5801,8.776 L690.5801,29.699 L702.9361,29.699 L702.9361,33.717 L690.5801,33.717 L690.5801,54.716 L704.9071,54.716 L704.9071,58.734 L686.1071,58.734 Z" id="Fill-34" sketch:type="MSShapeGroup"></path>
                <path d="M712.2303,5.4014 L712.2303,13.4034 L711.5143,13.4034 L711.5143,5.4014 L710.0683,5.4014 L710.0683,4.7574 L713.6753,4.7574 L713.6753,5.4014 L712.2303,5.4014 Z" id="Fill-35" sketch:type="MSShapeGroup"></path>
                <path d="M719.2588,13.4038 L719.2588,6.4458 L717.6798,11.0118 L717.1578,11.0118 L715.6038,6.5908 L715.6038,13.4038 L714.8868,13.4038 L714.8868,4.7578 L715.6038,4.7578 L717.4248,9.8458 L719.2588,4.7578 L719.9758,4.7578 L719.9758,13.4038 L719.2588,13.4038 Z" id="Fill-36" sketch:type="MSShapeGroup"></path>
            </g>
        </g>
    </g>
</svg>